<mxfile host="app.diagrams.net" agent="Mozilla/5.0 (Windows NT 10.0; Win64; x64) AppleWebKit/537.36 (KHTML, like Gecko) Chrome/131.0.0.0 Safari/537.36" version="25.0.1">
  <diagram id="C5RBs43oDa-KdzZeNtuy" name="Page-1">
    <mxGraphModel dx="1050" dy="557" grid="1" gridSize="10" guides="1" tooltips="1" connect="1" arrows="1" fold="1" page="1" pageScale="1" pageWidth="827" pageHeight="1169" math="0" shadow="0">
      <root>
        <mxCell id="WIyWlLk6GJQsqaUBKTNV-0" />
        <mxCell id="WIyWlLk6GJQsqaUBKTNV-1" parent="WIyWlLk6GJQsqaUBKTNV-0" />
        <mxCell id="XhJX4pGW6qYUnSApkIOt-5" value="" style="edgeStyle=orthogonalEdgeStyle;rounded=0;orthogonalLoop=1;jettySize=auto;html=1;" parent="WIyWlLk6GJQsqaUBKTNV-1" source="XhJX4pGW6qYUnSApkIOt-0" target="XhJX4pGW6qYUnSApkIOt-4" edge="1">
          <mxGeometry relative="1" as="geometry" />
        </mxCell>
        <mxCell id="XhJX4pGW6qYUnSApkIOt-0" value="Start (const string &amp;amp;filename)" style="ellipse;whiteSpace=wrap;html=1;" parent="WIyWlLk6GJQsqaUBKTNV-1" vertex="1">
          <mxGeometry x="120" y="60" width="120" height="80" as="geometry" />
        </mxCell>
        <mxCell id="XhJX4pGW6qYUnSApkIOt-7" style="edgeStyle=orthogonalEdgeStyle;rounded=0;orthogonalLoop=1;jettySize=auto;html=1;entryX=0.5;entryY=0;entryDx=0;entryDy=0;" parent="WIyWlLk6GJQsqaUBKTNV-1" source="XhJX4pGW6qYUnSApkIOt-4" target="XhJX4pGW6qYUnSApkIOt-6" edge="1">
          <mxGeometry relative="1" as="geometry" />
        </mxCell>
        <mxCell id="XhJX4pGW6qYUnSApkIOt-4" value="string username, password" style="whiteSpace=wrap;html=1;" parent="WIyWlLk6GJQsqaUBKTNV-1" vertex="1">
          <mxGeometry x="120" y="170" width="120" height="60" as="geometry" />
        </mxCell>
        <mxCell id="XhJX4pGW6qYUnSApkIOt-9" style="edgeStyle=orthogonalEdgeStyle;rounded=0;orthogonalLoop=1;jettySize=auto;html=1;" parent="WIyWlLk6GJQsqaUBKTNV-1" source="XhJX4pGW6qYUnSApkIOt-6" target="XhJX4pGW6qYUnSApkIOt-8" edge="1">
          <mxGeometry relative="1" as="geometry" />
        </mxCell>
        <mxCell id="XhJX4pGW6qYUnSApkIOt-6" value="Display &quot;Enter a new username: &quot;" style="shape=parallelogram;perimeter=parallelogramPerimeter;whiteSpace=wrap;html=1;fixedSize=1;" parent="WIyWlLk6GJQsqaUBKTNV-1" vertex="1">
          <mxGeometry x="110" y="260" width="140" height="70" as="geometry" />
        </mxCell>
        <mxCell id="XhJX4pGW6qYUnSApkIOt-11" value="" style="edgeStyle=orthogonalEdgeStyle;rounded=0;orthogonalLoop=1;jettySize=auto;html=1;" parent="WIyWlLk6GJQsqaUBKTNV-1" source="XhJX4pGW6qYUnSApkIOt-8" target="XhJX4pGW6qYUnSApkIOt-10" edge="1">
          <mxGeometry relative="1" as="geometry" />
        </mxCell>
        <mxCell id="XhJX4pGW6qYUnSApkIOt-8" value="Get username" style="shape=parallelogram;perimeter=parallelogramPerimeter;whiteSpace=wrap;html=1;fixedSize=1;" parent="WIyWlLk6GJQsqaUBKTNV-1" vertex="1">
          <mxGeometry x="120" y="350" width="120" height="60" as="geometry" />
        </mxCell>
        <mxCell id="XhJX4pGW6qYUnSApkIOt-13" style="edgeStyle=orthogonalEdgeStyle;rounded=0;orthogonalLoop=1;jettySize=auto;html=1;entryX=0;entryY=0.5;entryDx=0;entryDy=0;" parent="WIyWlLk6GJQsqaUBKTNV-1" source="XhJX4pGW6qYUnSApkIOt-10" target="XhJX4pGW6qYUnSApkIOt-12" edge="1">
          <mxGeometry relative="1" as="geometry" />
        </mxCell>
        <mxCell id="XhJX4pGW6qYUnSApkIOt-27" value="True" style="edgeLabel;html=1;align=center;verticalAlign=middle;resizable=0;points=[];" parent="XhJX4pGW6qYUnSApkIOt-13" vertex="1" connectable="0">
          <mxGeometry x="0.3311" y="2" relative="1" as="geometry">
            <mxPoint x="-4" as="offset" />
          </mxGeometry>
        </mxCell>
        <mxCell id="XhJX4pGW6qYUnSApkIOt-17" style="edgeStyle=orthogonalEdgeStyle;rounded=0;orthogonalLoop=1;jettySize=auto;html=1;" parent="WIyWlLk6GJQsqaUBKTNV-1" source="XhJX4pGW6qYUnSApkIOt-10" edge="1">
          <mxGeometry relative="1" as="geometry">
            <mxPoint x="270" y="770" as="targetPoint" />
            <Array as="points">
              <mxPoint x="180" y="770" />
              <mxPoint x="181" y="770" />
            </Array>
          </mxGeometry>
        </mxCell>
        <mxCell id="XhJX4pGW6qYUnSApkIOt-28" value="False" style="edgeLabel;html=1;align=center;verticalAlign=middle;resizable=0;points=[];" parent="XhJX4pGW6qYUnSApkIOt-17" vertex="1" connectable="0">
          <mxGeometry x="-0.4123" relative="1" as="geometry">
            <mxPoint as="offset" />
          </mxGeometry>
        </mxCell>
        <mxCell id="XhJX4pGW6qYUnSApkIOt-10" value="isUsernameTaken(filename, username)" style="rhombus;whiteSpace=wrap;html=1;" parent="WIyWlLk6GJQsqaUBKTNV-1" vertex="1">
          <mxGeometry x="95" y="435" width="170" height="165" as="geometry" />
        </mxCell>
        <mxCell id="XhJX4pGW6qYUnSApkIOt-15" value="" style="edgeStyle=orthogonalEdgeStyle;rounded=0;orthogonalLoop=1;jettySize=auto;html=1;" parent="WIyWlLk6GJQsqaUBKTNV-1" source="XhJX4pGW6qYUnSApkIOt-12" target="XhJX4pGW6qYUnSApkIOt-14" edge="1">
          <mxGeometry relative="1" as="geometry" />
        </mxCell>
        <mxCell id="XhJX4pGW6qYUnSApkIOt-12" value="Display &quot;Username already exists. Please try again.&quot;" style="shape=parallelogram;perimeter=parallelogramPerimeter;whiteSpace=wrap;html=1;fixedSize=1;" parent="WIyWlLk6GJQsqaUBKTNV-1" vertex="1">
          <mxGeometry x="294" y="481.25" width="166" height="72.5" as="geometry" />
        </mxCell>
        <mxCell id="XhJX4pGW6qYUnSApkIOt-16" style="edgeStyle=orthogonalEdgeStyle;rounded=0;orthogonalLoop=1;jettySize=auto;html=1;" parent="WIyWlLk6GJQsqaUBKTNV-1" source="XhJX4pGW6qYUnSApkIOt-14" edge="1">
          <mxGeometry relative="1" as="geometry">
            <mxPoint x="270" y="770" as="targetPoint" />
            <Array as="points">
              <mxPoint x="377" y="770" />
              <mxPoint x="378" y="770" />
            </Array>
          </mxGeometry>
        </mxCell>
        <mxCell id="XhJX4pGW6qYUnSApkIOt-14" value="Return" style="whiteSpace=wrap;html=1;" parent="WIyWlLk6GJQsqaUBKTNV-1" vertex="1">
          <mxGeometry x="317" y="640" width="120" height="60" as="geometry" />
        </mxCell>
        <mxCell id="XhJX4pGW6qYUnSApkIOt-18" value="" style="endArrow=classic;html=1;rounded=0;entryX=0.5;entryY=0;entryDx=0;entryDy=0;" parent="WIyWlLk6GJQsqaUBKTNV-1" target="XhJX4pGW6qYUnSApkIOt-20" edge="1">
          <mxGeometry width="50" height="50" relative="1" as="geometry">
            <mxPoint x="270" y="770" as="sourcePoint" />
            <mxPoint x="270" y="820" as="targetPoint" />
          </mxGeometry>
        </mxCell>
        <mxCell id="XhJX4pGW6qYUnSApkIOt-25" style="edgeStyle=orthogonalEdgeStyle;rounded=0;orthogonalLoop=1;jettySize=auto;html=1;entryX=0.5;entryY=0;entryDx=0;entryDy=0;" parent="WIyWlLk6GJQsqaUBKTNV-1" source="XhJX4pGW6qYUnSApkIOt-19" target="XhJX4pGW6qYUnSApkIOt-24" edge="1">
          <mxGeometry relative="1" as="geometry" />
        </mxCell>
        <mxCell id="XhJX4pGW6qYUnSApkIOt-19" value="ofstream file(filename, ios::app)" style="rounded=0;whiteSpace=wrap;html=1;" parent="WIyWlLk6GJQsqaUBKTNV-1" vertex="1">
          <mxGeometry x="210" y="990" width="120" height="60" as="geometry" />
        </mxCell>
        <mxCell id="XhJX4pGW6qYUnSApkIOt-22" style="edgeStyle=orthogonalEdgeStyle;rounded=0;orthogonalLoop=1;jettySize=auto;html=1;entryX=0.5;entryY=0;entryDx=0;entryDy=0;" parent="WIyWlLk6GJQsqaUBKTNV-1" source="XhJX4pGW6qYUnSApkIOt-20" target="XhJX4pGW6qYUnSApkIOt-21" edge="1">
          <mxGeometry relative="1" as="geometry" />
        </mxCell>
        <mxCell id="XhJX4pGW6qYUnSApkIOt-20" value="Display&amp;nbsp;&quot;Enter a new password: &quot;" style="shape=parallelogram;perimeter=parallelogramPerimeter;whiteSpace=wrap;html=1;fixedSize=1;" parent="WIyWlLk6GJQsqaUBKTNV-1" vertex="1">
          <mxGeometry x="200" y="800" width="140" height="80" as="geometry" />
        </mxCell>
        <mxCell id="XhJX4pGW6qYUnSApkIOt-23" style="edgeStyle=orthogonalEdgeStyle;rounded=0;orthogonalLoop=1;jettySize=auto;html=1;" parent="WIyWlLk6GJQsqaUBKTNV-1" source="XhJX4pGW6qYUnSApkIOt-21" target="XhJX4pGW6qYUnSApkIOt-19" edge="1">
          <mxGeometry relative="1" as="geometry" />
        </mxCell>
        <mxCell id="XhJX4pGW6qYUnSApkIOt-21" value="Get password" style="shape=parallelogram;perimeter=parallelogramPerimeter;whiteSpace=wrap;html=1;fixedSize=1;" parent="WIyWlLk6GJQsqaUBKTNV-1" vertex="1">
          <mxGeometry x="210" y="900" width="120" height="60" as="geometry" />
        </mxCell>
        <mxCell id="XhJX4pGW6qYUnSApkIOt-24" value="A" style="ellipse;whiteSpace=wrap;html=1;aspect=fixed;" parent="WIyWlLk6GJQsqaUBKTNV-1" vertex="1">
          <mxGeometry x="230" y="1080" width="80" height="80" as="geometry" />
        </mxCell>
        <mxCell id="XhJX4pGW6qYUnSApkIOt-30" value="" style="edgeStyle=orthogonalEdgeStyle;rounded=0;orthogonalLoop=1;jettySize=auto;html=1;" parent="WIyWlLk6GJQsqaUBKTNV-1" source="XhJX4pGW6qYUnSApkIOt-26" target="XhJX4pGW6qYUnSApkIOt-29" edge="1">
          <mxGeometry relative="1" as="geometry" />
        </mxCell>
        <mxCell id="XhJX4pGW6qYUnSApkIOt-26" value="A" style="ellipse;whiteSpace=wrap;html=1;aspect=fixed;" parent="WIyWlLk6GJQsqaUBKTNV-1" vertex="1">
          <mxGeometry x="590" y="60" width="80" height="80" as="geometry" />
        </mxCell>
        <mxCell id="XhJX4pGW6qYUnSApkIOt-31" style="edgeStyle=orthogonalEdgeStyle;rounded=0;orthogonalLoop=1;jettySize=auto;html=1;entryX=0.5;entryY=0;entryDx=0;entryDy=0;" parent="WIyWlLk6GJQsqaUBKTNV-1" source="XhJX4pGW6qYUnSApkIOt-29" target="XhJX4pGW6qYUnSApkIOt-37" edge="1">
          <mxGeometry relative="1" as="geometry">
            <mxPoint x="630" y="470" as="targetPoint" />
          </mxGeometry>
        </mxCell>
        <mxCell id="lHBs-TpQqX-t13G8OFNS-1" value="False" style="edgeLabel;html=1;align=center;verticalAlign=middle;resizable=0;points=[];" vertex="1" connectable="0" parent="XhJX4pGW6qYUnSApkIOt-31">
          <mxGeometry x="-0.1143" y="4" relative="1" as="geometry">
            <mxPoint as="offset" />
          </mxGeometry>
        </mxCell>
        <mxCell id="XhJX4pGW6qYUnSApkIOt-33" style="edgeStyle=orthogonalEdgeStyle;rounded=0;orthogonalLoop=1;jettySize=auto;html=1;" parent="WIyWlLk6GJQsqaUBKTNV-1" source="XhJX4pGW6qYUnSApkIOt-29" target="XhJX4pGW6qYUnSApkIOt-32" edge="1">
          <mxGeometry relative="1" as="geometry" />
        </mxCell>
        <mxCell id="lHBs-TpQqX-t13G8OFNS-0" value="True" style="edgeLabel;html=1;align=center;verticalAlign=middle;resizable=0;points=[];" vertex="1" connectable="0" parent="XhJX4pGW6qYUnSApkIOt-33">
          <mxGeometry x="0.4708" y="2" relative="1" as="geometry">
            <mxPoint as="offset" />
          </mxGeometry>
        </mxCell>
        <mxCell id="XhJX4pGW6qYUnSApkIOt-29" value="!file.is_open()" style="rhombus;whiteSpace=wrap;html=1;" parent="WIyWlLk6GJQsqaUBKTNV-1" vertex="1">
          <mxGeometry x="585" y="170" width="90" height="90" as="geometry" />
        </mxCell>
        <mxCell id="XhJX4pGW6qYUnSApkIOt-35" value="" style="edgeStyle=orthogonalEdgeStyle;rounded=0;orthogonalLoop=1;jettySize=auto;html=1;" parent="WIyWlLk6GJQsqaUBKTNV-1" source="XhJX4pGW6qYUnSApkIOt-32" target="XhJX4pGW6qYUnSApkIOt-34" edge="1">
          <mxGeometry relative="1" as="geometry" />
        </mxCell>
        <mxCell id="XhJX4pGW6qYUnSApkIOt-32" value="Display &quot;Error opening file.&quot;" style="shape=parallelogram;perimeter=parallelogramPerimeter;whiteSpace=wrap;html=1;fixedSize=1;" parent="WIyWlLk6GJQsqaUBKTNV-1" vertex="1">
          <mxGeometry x="700" y="185" width="120" height="60" as="geometry" />
        </mxCell>
        <mxCell id="XhJX4pGW6qYUnSApkIOt-36" style="edgeStyle=orthogonalEdgeStyle;rounded=0;orthogonalLoop=1;jettySize=auto;html=1;" parent="WIyWlLk6GJQsqaUBKTNV-1" source="XhJX4pGW6qYUnSApkIOt-34" edge="1">
          <mxGeometry relative="1" as="geometry">
            <mxPoint x="630" y="450" as="targetPoint" />
            <Array as="points">
              <mxPoint x="760" y="450" />
              <mxPoint x="761" y="450" />
            </Array>
          </mxGeometry>
        </mxCell>
        <mxCell id="XhJX4pGW6qYUnSApkIOt-34" value="Return" style="whiteSpace=wrap;html=1;" parent="WIyWlLk6GJQsqaUBKTNV-1" vertex="1">
          <mxGeometry x="700" y="325" width="120" height="60" as="geometry" />
        </mxCell>
        <mxCell id="XhJX4pGW6qYUnSApkIOt-39" style="edgeStyle=orthogonalEdgeStyle;rounded=0;orthogonalLoop=1;jettySize=auto;html=1;entryX=0.5;entryY=0;entryDx=0;entryDy=0;" parent="WIyWlLk6GJQsqaUBKTNV-1" source="XhJX4pGW6qYUnSApkIOt-37" target="XhJX4pGW6qYUnSApkIOt-38" edge="1">
          <mxGeometry relative="1" as="geometry" />
        </mxCell>
        <mxCell id="XhJX4pGW6qYUnSApkIOt-37" value="file &amp;lt;&amp;lt; username &amp;lt;&amp;lt; &quot; &quot; &amp;lt;&amp;lt; password" style="rounded=0;whiteSpace=wrap;html=1;" parent="WIyWlLk6GJQsqaUBKTNV-1" vertex="1">
          <mxGeometry x="570" y="470" width="120" height="60" as="geometry" />
        </mxCell>
        <mxCell id="XhJX4pGW6qYUnSApkIOt-41" style="edgeStyle=orthogonalEdgeStyle;rounded=0;orthogonalLoop=1;jettySize=auto;html=1;entryX=0.5;entryY=0;entryDx=0;entryDy=0;" parent="WIyWlLk6GJQsqaUBKTNV-1" source="XhJX4pGW6qYUnSApkIOt-38" target="_E2_tVltLX3fu88VzNf8-0" edge="1">
          <mxGeometry relative="1" as="geometry">
            <mxPoint x="630" y="650" as="targetPoint" />
          </mxGeometry>
        </mxCell>
        <mxCell id="XhJX4pGW6qYUnSApkIOt-38" value="Display&amp;nbsp;&quot;Sign up successful!&quot;" style="shape=parallelogram;perimeter=parallelogramPerimeter;whiteSpace=wrap;html=1;fixedSize=1;" parent="WIyWlLk6GJQsqaUBKTNV-1" vertex="1">
          <mxGeometry x="570" y="560" width="120" height="60" as="geometry" />
        </mxCell>
        <mxCell id="_E2_tVltLX3fu88VzNf8-0" value="End" style="ellipse;whiteSpace=wrap;html=1;" parent="WIyWlLk6GJQsqaUBKTNV-1" vertex="1">
          <mxGeometry x="570" y="660" width="120" height="80" as="geometry" />
        </mxCell>
      </root>
    </mxGraphModel>
  </diagram>
</mxfile>
